HIERARCHY
ROOT Hips
{
 OFFSET 0.000000 0.000000 0.000000
 CHANNELS 6 Xposition Yposition Zposition Yrotation Xrotation Zrotation
 JOINT Chest
 {
  OFFSET 0.000000 9.585900 0.002600
  CHANNELS 3 Yrotation Xrotation Zrotation
  JOINT Chest2
  {
   OFFSET 0.000000 9.601200 -0.005300
   CHANNELS 3 Yrotation Xrotation Zrotation
   JOINT Chest3
   {
    OFFSET 0.000000 9.561800 0.000000
    CHANNELS 3 Yrotation Xrotation Zrotation
    JOINT Chest4
    {
     OFFSET 0.000000 9.552100 0.000000
     CHANNELS 3 Yrotation Xrotation Zrotation
     JOINT Neck
     {
      OFFSET 0.000000 14.453000 0.000000
      CHANNELS 3 Yrotation Xrotation Zrotation
      JOINT Head
      {
       OFFSET 0.000000 8.936500 -0.011300
       CHANNELS 3 Yrotation Xrotation Zrotation
       End Site
       {
        OFFSET 0.000000 17.073600 -0.006000
       }
      }
     }
     JOINT RightCollar
     {
      OFFSET -2.921100 9.558500 0.000000
      CHANNELS 3 Yrotation Xrotation Zrotation
      JOINT RightShoulder
      {
       OFFSET -13.519700 0.000000 0.000000
       CHANNELS 3 Yrotation Xrotation Zrotation
       JOINT RightElbow
       {
        OFFSET 0.000000 -29.696600 0.000000
        CHANNELS 3 Yrotation Xrotation Zrotation
        JOINT RightWrist
        {
         OFFSET 0.000000 -24.004700 0.000000
         CHANNELS 3 Yrotation Xrotation Zrotation
         End Site
         {
          OFFSET 0.000000 -17.728500 0.000000
         }
        }
       }
      }
     }
     JOINT LeftCollar
     {
      OFFSET 2.921100 9.558500 0.000000
      CHANNELS 3 Yrotation Xrotation Zrotation
      JOINT LeftShoulder
      {
       OFFSET 13.519700 0.000000 0.000000
       CHANNELS 3 Yrotation Xrotation Zrotation
       JOINT LeftElbow
       {
        OFFSET 0.000000 -29.696600 0.000000
        CHANNELS 3 Yrotation Xrotation Zrotation
        JOINT LeftWrist
        {
         OFFSET 0.000000 -24.004700 0.000000
         CHANNELS 3 Yrotation Xrotation Zrotation
         End Site
         {
          OFFSET 0.000000 -17.728500 0.000000
         }
        }
       }
      }
     }
    }
   }
  }
 }
 JOINT RightHip
 {
  OFFSET -7.771700 -0.012900 -0.001300
  CHANNELS 3 Yrotation Xrotation Zrotation
  JOINT RightKnee
  {
   OFFSET 0.000000 -40.869800 0.001200
   CHANNELS 3 Yrotation Xrotation Zrotation
   JOINT RightAnkle
   {
    OFFSET 0.000000 -39.717900 0.002100
    CHANNELS 3 Yrotation Xrotation Zrotation
    JOINT RightToe
    {
     OFFSET 0.000000 -4.965400 11.033500
     CHANNELS 3 Yrotation Xrotation Zrotation
     End Site
     {
      OFFSET 0.000000 -1.423100 5.872300
     }
    }
   }
  }
 }
 JOINT LeftHip
 {
  OFFSET 7.771700 -0.012900 -0.001300
  CHANNELS 3 Yrotation Xrotation Zrotation
  JOINT LeftKnee
  {
   OFFSET 0.000000 -40.869800 0.001200
   CHANNELS 3 Yrotation Xrotation Zrotation
   JOINT LeftAnkle
   {
    OFFSET 0.000000 -39.717900 0.002100
    CHANNELS 3 Yrotation Xrotation Zrotation
    JOINT LeftToe
    {
     OFFSET 0.000000 -4.965400 11.033500
     CHANNELS 3 Yrotation Xrotation Zrotation
     End Site
     {
      OFFSET 0.000000 -1.423100 5.872300
     }
    }
   }
  }
 }
}
MOTION
Frames: 12
Frame Time: 0.008333
0.000000 85.388000 0.000000 0.000000 -5.767877 0.000000 0.000000 11.653817 0.000000 0.000000 -5.885947 0.000000 0.000000 -0.000000 0.000000 0.000000 -0.000000 0.000000 0.000000 12.528835 0.000000 0.000000 0.711642 0.000000 0.000000 -0.000000 0.000000 0.000000 0.000000 -90.000000 0.000000 -2.309062 0.000000 0.000000 2.309062 0.000000 0.000000 -0.000000 0.000000 0.000000 -0.000000 90.000000 0.000000 -2.309062 0.000000 0.000000 2.309062 0.000000 0.000000 8.520406 0.000000 0.000000 1.905762 0.000000 -0.000000 -4.658285 0.000000 0.000000 -0.000000 0.000000 0.000000 8.520406 0.000000 0.000000 1.905762 0.000000 -0.000000 -4.658285 0.000000 0.000000 -0.000000 0.000000
-229.356804 57.575489 23.696425 177.434098 -50.573783 -3.944245 4.322283 22.894357 2.847156 2.270854 13.088899 1.387111 2.946985 16.354298 1.837454 2.294786 13.101835 1.393393 2.331028 16.952644 1.555823 3.777998 -4.322185 2.077748 3.751306 3.753447 1.787487 0.243079 -13.303602 -12.238710 -41.511299 -32.723037 105.175663 -12.501644 -4.434941 -43.592120 -9.220499 -0.798029 -1.047709 -2.363403 -30.138979 2.193036 63.154779 -37.856974 -127.722342 -3.782111 5.814208 -32.581985 5.570769 -20.990191 -2.374502 -43.553944 72.440074 -47.351338 3.929330 -13.779582 12.829739 0.004522 -0.029937 -0.011794 -9.992321 -19.728090 8.762639 53.107775 82.101154 53.693316 -1.324542 -17.716040 -20.985838 0.005197 0.007003 0.018304
-229.355668 57.578162 23.697726 177.442481 -50.606256 -3.958748 4.369409 22.884227 2.880881 2.260964 13.123510 1.395429 2.973176 16.355594 1.844305 2.295168 13.105748 1.400652 2.313744 16.945203 1.639798 3.733104 -4.360852 2.295440 3.667170 3.719830 1.814870 0.275341 -13.305920 -12.252360 -41.497761 -32.679430 105.254647 -12.492679 -4.438542 -43.639072 -9.272856 -0.788543 -1.026321 -2.374841 -29.924889 2.408329 62.658767 -37.936830 -126.984509 -3.511827 5.819641 -31.671013 5.559469 -20.953685 -2.367727 -43.540564 72.435066 -47.324348 3.935337 -13.777021 12.816192 0.001205 -0.028354 -0.009313 -9.983699 -19.699661 8.773106 53.070104 82.110642 53.663400 -1.330974 -17.711222 -20.984082 0.005655 0.004283 0.014393
-229.356017 57.580664 23.699505 177.453696 -50.639842 -3.968094 4.385125 22.890289 2.889222 2.307294 13.108480 1.407521 2.955793 16.375556 1.857051 2.307223 13.108458 1.407557 2.303089 16.928256 1.742868 3.677821 -4.393938 2.489460 3.565684 3.677361 1.872314 0.334977 -13.310968 -12.292770 -41.458821 -32.633817 105.217725 -12.499125 -4.434590 -43.577965 -9.320872 -0.758216 -0.993186 -2.373288 -29.709003 2.604794 62.153316 -38.024366 -126.249124 -3.252439 5.838325 -30.746482 5.538373 -20.908215 -2.373499 -43.469139 72.434408 -47.257049 3.936826 -13.778368 12.816143 -0.006923 -0.024090 -0.011169 -9.971930 -19.672282 8.776078 53.030830 82.117488 53.626102 -1.340492 -17.704535 -20.972464 0.007855 0.001495 0.011432
-229.355634 57.580662 23.703877 177.457742 -50.655343 -3.978810 4.401709 22.873076 2.899990 2.318946 13.108037 1.413655 2.952950 16.393147 1.865715 2.335064 13.090549 1.407303 2.299413 16.902717 1.865428 3.612877 -4.419786 2.660500 3.490432 3.679381 1.914504 0.358520 -13.407740 -12.300988 -41.371912 -32.550947 105.180662 -12.465334 -4.416466 -43.458055 -9.364630 -0.711393 -0.948984 -2.364540 -29.487423 2.796033 61.646092 -38.109107 -125.526742 -3.003184 5.870898 -29.810526 5.529909 -20.891609 -2.368669 -43.451774 72.429325 -47.227382 3.939664 -13.770203 12.809903 -0.004181 -0.023605 -0.012677 -9.941402 -19.666006 8.801785 52.961847 82.126652 53.557125 -1.355763 -17.697753 -20.949399 -0.009157 0.004975 0.014147
-229.354672 57.583219 23.706577 177.449747 -50.691342 -3.985236 4.425287 22.873294 2.914744 2.326696 13.114836 1.419681 2.957210 16.402445 1.873050 2.357451 13.066617 1.405727 2.284762 16.884726 1.964088 3.551664 -4.454461 2.847841 3.418105 3.694773 1.962384 0.381722 -13.441555 -12.318139 -41.379494 -32.533137 105.280235 -12.436082 -4.368695 -43.441823 -9.392267 -0.657776 -0.903698 -2.364981 -29.253367 2.997351 61.138404 -38.191376 -124.817977 -2.756123 5.914145 -28.878593 5.528366 -20.855407 -2.355912 -43.407873 72.426371 -47.174775 3.930930 -13.755602 12.807913 0.006401 -0.024786 -0.013249 -9.922253 -19.630632 8.817784 52.901220 82.133000 53.504315 -1.386634 -17.700019 -20.943771 0.001675 0.001286 0.018161
-229.353807 57.585508 23.709822 177.437907 -50.724779 -3.989985 4.446281 22.879205 2.929323 2.328058 13.130934 1.425139 2.985074 16.371786 1.871817 2.346635 13.083131 1.417139 2.280190 16.845622 2.055598 3.487822 -4.488557 3.028290 3.364938 3.695182 2.003071 0.414814 -13.447711 -12.343967 -41.396708 -32.537306 105.332108 -12.405796 -4.327261 -43.387653 -9.348745 -0.597932 -0.789844 -2.371678 -29.041315 3.123368 60.614532 -38.273190 -124.107982 -2.513667 5.958415 -27.964795 5.526145 -20.820196 -2.348401 -43.355380 72.420869 -47.105517 3.944929 -13.744915 12.797595 0.003209 -0.024007 -0.018698 -9.910735 -19.596489 8.831471 52.908495 82.126990 53.500895 -1.383620 -17.694220 -20.935668 -0.001869 0.003956 0.015327
-229.353920 57.586696 23.714194 177.430309 -50.748264 -3.993510 4.455923 22.873665 2.939524 2.341613 13.121039 1.424977 2.998264 16.366656 1.879675 2.340339 13.101646 1.424539 2.267276 16.810728 2.151859 3.423218 -4.522672 3.196538 3.313515 3.696810 2.041841 0.430656 -13.489504 -12.354976 -41.378493 -32.530899 105.348337 -12.374688 -4.282120 -43.334227 -9.322731 -0.550510 -0.720480 -2.377233 -28.812279 3.299841 60.063443 -38.351021 -123.390617 -2.288417 5.991475 -27.077891 5.524152 -20.794933 -2.342260 -43.312021 72.418512 -47.056917 3.945705 -13.735491 12.801139 0.004655 -0.025104 -0.028083 -9.891188 -19.575413 8.845604 52.889481 82.125329 53.480030 -1.383255 -17.688682 -20.929366 -0.000815 0.006143 0.015586
-229.355715 57.587932 23.718695 177.429711 -50.770116 -3.992458 4.453080 22.866742 2.942382 2.348029 13.117926 1.425037 3.005344 16.361216 1.885933 2.346040 13.097219 1.429613 2.241985 16.801784 2.249812 3.357248 -4.560123 3.351668 3.260943 3.718134 2.074191 0.441804 -13.525942 -12.365348 -41.359566 -32.530247 105.363348 -12.344414 -4.240381 -43.276655 -9.291260 -0.482670 -0.650840 -2.375481 -28.582035 3.462774 59.493930 -38.422894 -122.682024 -2.078736 6.009889 -26.220406 5.517464 -20.763724 -2.353796 -43.231367 72.417843 -46.973838 3.953980 -13.734814 12.816861 0.001335 -0.019406 -0.043748 -9.872783 -19.554843 8.851452 52.824594 82.117327 53.404318 -1.397295 -17.679922 -20.914886 -0.012907 0.009886 0.018547
-229.356504 57.589149 23.723781 177.424313 -50.788996 -3.992754 4.451871 22.867986 2.953314 2.352664 13.111974 1.427410 3.000357 16.341160 1.919813 2.345087 13.114821 1.408828 2.215482 16.785092 2.335783 3.288914 -4.603471 3.497472 3.217577 3.727973 2.089093 0.462187 -13.535938 -12.383629 -41.363772 -32.540192 105.395100 -12.316590 -4.206595 -43.215421 -9.239612 -0.429768 -0.588642 -2.366001 -28.347646 3.612295 58.918898 -38.488780 -121.994919 -1.875168 6.020369 -25.392895 5.518035 -20.743609 -2.350592 -43.197259 72.415458 -46.934064 3.953351 -13.727554 12.818084 0.001734 -0.018322 -0.043227 -9.855329 -19.534994 8.858546 52.740926 82.116199 53.321347 -1.402962 -17.674878 -20.909215 -0.003575 0.010316 0.015174
-229.356943 57.590240 23.729460 177.419654 -50.803909 -3.993726 4.445705 22.867300 2.964112 2.353959 13.110717 1.433962 2.994252 16.342894 1.928486 2.346266 13.111795 1.414666 2.187753 16.762524 2.409686 3.217928 -4.651509 3.639874 3.181460 3.730633 2.089740 0.475429 -13.549422 -12.391467 -41.330976 -32.541656 105.383548 -12.285695 -4.195712 -43.137789 -9.175262 -0.391010 -0.533652 -2.340648 -28.104593 3.742198 58.339596 -38.547825 -121.328997 -1.676785 6.030151 -24.589222 5.518593 -20.727614 -2.347144 -43.172667 72.414234 -46.905615 3.954239 -13.722956 12.820135 0.000006 -0.017453 -0.035358 -9.838187 -19.520130 8.875163 52.616817 82.122612 53.198414 -1.416710 -17.668786 -20.902365 0.000328 0.009335 0.017115
-229.357301 57.590771 23.736018 177.417157 -50.811669 -3.994210 4.435209 22.858734 2.972831 2.340140 13.095594 1.456043 2.998920 16.358952 1.919153 2.340941 13.100585 1.447166 2.156284 16.748680 2.454212 3.142802 -4.699909 3.781828 3.150339 3.743451 2.059693 0.487112 -13.558643 -12.397423 -41.304428 -32.541395 105.371601 -12.270399 -4.186892 -43.086699 -9.109343 -0.354009 -0.506207 -2.284666 -27.854200 3.841397 57.740379 -38.597420 -120.674466 -1.485597 6.042729 -23.795951 5.514003 -20.719151 -2.346161 -43.139131 72.414294 -46.871020 3.955225 -13.717864 12.817118 -0.001881 -0.017364 -0.036789 -9.835432 -19.512781 8.884123 52.563725 82.125426 53.141883 -1.415512 -17.663157 -20.904607 0.002567 0.009426 0.018423
